<svg xmlns="http://www.w3.org/2000/svg" xmlns:xlink="http://www.w3.org/1999/xlink" width="400" height="400" viewBox="0 0 207.1 207.1">
  <defs>
    <style>
      .a {
        fill: #26283d;
      }

      .b {
        fill: url(#a);
      }

      .c {
        fill: #a59678;
      }

      .d {
        fill: url(#b);
      }
    </style>
    <radialGradient id="a" cx="103.55" cy="103.55" fx="14.832241021269397" fy="15.612815806821033" r="196.89" gradientUnits="userSpaceOnUse">
      <stop offset="0" stop-color="#746b7f"/>
      <stop offset="0.12" stop-color="#615b6f"/>
      <stop offset="0.26" stop-color="#514c60"/>
      <stop offset="0.37" stop-color="#4b475b"/>
      <stop offset="0.44" stop-color="#4f4b5f"/>
      <stop offset="0.51" stop-color="#5a566c"/>
      <stop offset="0.59" stop-color="#6d6881"/>
      <stop offset="0.67" stop-color="#87829e"/>
      <stop offset="0.74" stop-color="#a9a2c3"/>
      <stop offset="0.78" stop-color="#bcb5d9"/>
    </radialGradient>
    <linearGradient id="b" x1="38.31" y1="53.82" x2="165.6" y2="163.88" gradientUnits="userSpaceOnUse">
      <stop offset="0.05" stop-color="#448491"/>
      <stop offset="0.15" stop-color="#4a7986"/>
      <stop offset="0.33" stop-color="#506e7b"/>
      <stop offset="0.52" stop-color="#526a77"/>
      <stop offset="0.6" stop-color="#56707c"/>
      <stop offset="0.7" stop-color="#607f8b"/>
      <stop offset="0.82" stop-color="#7099a3"/>
      <stop offset="0.94" stop-color="#87bdc4"/>
      <stop offset="1" stop-color="#94d1d6"/>
    </linearGradient>
  </defs>
  <title>Artboard 1</title>
  <g>
    <rect class="a" width="207.1" height="207.1" rx="14.92"/>
    <rect class="b" x="7.12" y="7.12" width="192.87" height="192.87" rx="8.23"/>
    <path class="a" d="M120.57,188.71c-2.53,0-4.91-.11-7.27-.32a45,45,0,0,1-8.24-1.29,44,44,0,0,1-15-7.67,58.55,58.55,0,0,1-15.36-17.67c-1.56-2.75-3-6.59-6.82-16.86-.84-2.27-1.47-4-2-5.39-1.24-3.37-1.65-4.51-2.66-6.7a52.55,52.55,0,0,0-4.83-8.94,50.86,50.86,0,0,0-8-8.76c-1.15-1-1.68-1.47-2.66-2.23-1.22-1-2.9-2.3-6.12-5.12-5.44-4.78-7.49-7-9.38-9.42a41.73,41.73,0,0,1-6.72-11.59,38.55,38.55,0,0,1-2.42-11.61,38.33,38.33,0,0,1,1.09-10.29A73.62,73.62,0,0,1,30.7,46.2a50.89,50.89,0,0,1,8-12.07A56,56,0,0,1,51.82,23.69a46,46,0,0,1,7-3.36A32.68,32.68,0,0,1,70.05,18.4a38.6,38.6,0,0,1,10.14,1.38A31.55,31.55,0,0,1,97.06,30.4c4.56,5.64,6.4,12.73,7.89,22.34.38,2.5.53,3.79.66,4.92.08.78.17,1.56.37,2.94,1.21,8.24,1.81,12,3.19,14.87,2,4.2,5.82,6.65,8.33,8.27,6.16,4,12.52,4.54,16.73,4.91,1.66.15,3.55.23,5.61.23,3.08,0,5.64-.17,6.59-.24,1.89-.14,3.47-.32,5-.5a58.42,58.42,0,0,1,7-.52,32.59,32.59,0,0,1,8.68,1.17,30,30,0,0,1,15.83,9.47c4.21,5,5.34,9.93,6.76,16.2a75.38,75.38,0,0,1,1.81,12.74c.24,4.87.57,11.52-1.72,19.36a50.42,50.42,0,0,1-11.11,19.38,63.6,63.6,0,0,1-19,14.55,69.62,69.62,0,0,1-12.75,4.77,89.69,89.69,0,0,1-18.68,3.15C125.58,188.61,123,188.71,120.57,188.71Z"/>
    <path class="c" d="M120.57,181.05c-2.3,0-4.46-.09-6.59-.28a38.17,38.17,0,0,1-7-1.07,36.37,36.37,0,0,1-12.35-6.37A50.85,50.85,0,0,1,81.35,158c-1.26-2.23-2.74-6.19-6.31-15.77-.84-2.24-1.46-3.94-2-5.34-1.24-3.39-1.75-4.8-2.89-7.27a60.17,60.17,0,0,0-5.5-10.11,58.08,58.08,0,0,0-9.13-10c-1.35-1.23-2.07-1.8-3.07-2.59-1.23-1-2.75-2.17-5.82-4.86-5-4.38-6.8-6.33-8.4-8.38a34.5,34.5,0,0,1-5.58-9.56,28.26,28.26,0,0,1-1-17.58,65.7,65.7,0,0,1,5.85-16.8,43.55,43.55,0,0,1,6.85-10.4,48,48,0,0,1,11.26-9,39.2,39.2,0,0,1,5.83-2.81,24.82,24.82,0,0,1,8.6-1.47,31.53,31.53,0,0,1,8.15,1.12,23.78,23.78,0,0,1,12.91,8c3,3.77,4.75,8.84,6.28,18.7.36,2.34.49,3.49.61,4.6.09.85.19,1.7.41,3.2,1.24,8.41,1.92,13.05,3.87,17.09,3,6.13,8,9.41,11.07,11.36,7.74,5,15.54,5.7,20.2,6.12,1.88.17,4,.25,6.29.25,3.34,0,6.12-.18,7.17-.26,2-.15,3.76-.35,5.29-.53a52.84,52.84,0,0,1,6.09-.47,24.65,24.65,0,0,1,6.67.91c2.56.69,7.88,2.14,12,7,3,3.57,3.86,7.31,5.15,13a67.86,67.86,0,0,1,1.63,11.42c.22,4.56.5,10.23-1.43,16.83a42.88,42.88,0,0,1-9.54,16.52,55.64,55.64,0,0,1-16.69,12.71,61.39,61.39,0,0,1-11.42,4.26,83,83,0,0,1-17.18,2.88C125.18,181,122.83,181.05,120.57,181.05Z"/>
    <path class="d" d="M63.59,33.38c5.67-2.08,11.32-.63,13-.19a17.64,17.64,0,0,1,9.68,6c2.23,2.75,3.62,7,5,15.73.63,4.06.51,4.24,1,7.75,1.29,8.76,2.06,14,4.43,18.9,3.73,7.7,10,11.77,13.29,13.88,9,5.84,18,6.64,23,7.09a98.18,98.18,0,0,0,14.47,0c7.67-.57,10.71-1.72,15.95-.29,2.31.62,6.06,1.7,8.86,5,2,2.41,2.64,5,3.84,10.33a61,61,0,0,1,1.48,10.34c.22,4.41.45,9.18-1.18,14.77a36.6,36.6,0,0,1-8.27,14.18,49,49,0,0,1-14.77,11.22A54.6,54.6,0,0,1,143,171.9a76.65,76.65,0,0,1-15.95,2.66,74.82,74.82,0,0,1-12.55,0,32.39,32.39,0,0,1-5.91-.89,29.67,29.67,0,0,1-10.19-5.31,44.4,44.4,0,0,1-11.66-13.44c-1-1.8-2.65-6.17-5.91-14.92-2.88-7.73-3.29-9.23-5-13a64.61,64.61,0,0,0-6.06-11.08,63.58,63.58,0,0,0-10-11.08c-3.21-2.92-3.41-2.64-9-7.53-4.88-4.28-6.37-5.95-7.61-7.53a28.37,28.37,0,0,1-4.65-7.9A24.49,24.49,0,0,1,37,74.58a24.69,24.69,0,0,1,.78-6.76,59.27,59.27,0,0,1,5.31-15.28,37.69,37.69,0,0,1,5.91-9,41.72,41.72,0,0,1,5-4.58,40.6,40.6,0,0,1,4.73-3.17A34.93,34.93,0,0,1,63.59,33.38Z"/>
  </g>
</svg>
